**ABCDEFGHIJKLMNOPQRSTUVWXYZabcdefghijklmnopqrstuvwxyz**************************
**PARASOLID !"#$%&'()*+,-./:;<=>?@[\]^_`{|}~0123456789**************************
**PART1;
MC=;
MC_MODEL=;
MC_ID=unknown;
OS=Windows;
OS_RELEASE=;
FRU=;
APPL=Autodesk Inventor 2022;
SITE=unknown;
USER=unknown;
FORMAT=text;
GUISE=transmit;
KEY=18650_Generic;
FILE=D:\Inventor Zeichnungen\Fahrradakku\import\generic-18650-cell-1.snapshot.3\18650_Generic.x_t;
DATE=2022-Apr-10 09:54:55;
**PART2;
SCH=SCH_3300153_32001;
USFLD_SIZE=0;
**PART3;
**END_OF_HEADER*****************************************************************
T51 : TRANSMIT FILE created by modeller version 330015317 SCH_3300153_320010 12
 1 697 2 3 0 0 0 0 0 0 1e3 1e-8 0 0 0 1 0 1 1 4 5 6 7 0 0 8 9 10 0 0 0 0 0 0 0 8
1 1 2 697 11 1 12 0 0 0 13 70 3 0 4 T1 0 0 6 20 1 14 14 13 4 274 0 1 0 15 0 0 16
 0 50 5 484 0 15 17 0 0 +0 0 0 0 -1 0 0 0 1 30 6 696 0 1 18 0 19 +-.003803777105
82073 .06538 -.002844559338433885 0 -1 0 29 7 342 0 10 20 0 -.00380377710582077
 .06488 .00284455933843383 19 8 1 0 1 16 0 21 V0 16 9 253 0 5e-7 22 0 23 0 0 0 1
 18 10 232 0 24 0 25 7 ?1 17 24 0 26 27 28 10 29 30 0 31 +18 25 231 0 32 10 33 2
0 ?1 17 32 0 34 35 36 25 37 38 0 39 -18 33 223 0 40 25 41 42 ?1 29 20 341 0 25 4
2 7 -.00380377710582073 .06488 -.002844559338433885 29 42 340 0 33 43 20 -.00090
2090802473944 .06488 -.004152915648717965 29 43 339 0 41 44 42 -.003867976945872
76 .0650326280323209 -.00351407944506052 18 41 216 0 45 33 46 43 5e-7 1 29 44 33
8 0 46 47 43 -.003145485050326665 .06488 -.002857691375821765 18 46 214 0 48 41
 49 44 ?1 29 47 337 0 49 50 44 -.00386797694587277 .06488 -.003514079445060505 1
8 49 213 0 37 46 51 47 ?1 29 50 336 0 51 52 47 -.001114359353944848 .06488 -.005
13012701892221 18 51 208 0 53 49 54 50 ?1 29 52 335 0 54 55 50 -.003885640646055
07 .06488 -.00353012701892223 18 54 206 0 56 51 57 52 ?1 29 55 334 0 57 58 52 -.
003145485050326705 .06488 .002857691375821725 18 57 201 0 59 54 60 55 ?1 29 58 3
33 0 60 61 55 -.00386797694587282 .06488 .00351407944506045 18 60 199 0 29 57 62
 58 ?1 29 61 332 0 62 63 58 -.003867976945872815 .0650326280323209 .003514079445
06046 18 62 197 0 64 60 65 61 5e-7 1 29 63 331 0 65 66 61 -.001109293597402726 .
0650326280323209 .00510680601890862 18 65 191 0 67 62 68 63 5e-7 1 29 66 330 0 6
8 69 63 -.000902090802474002 .06488 .004152915648717955 18 68 189 0 70 65 71 66
 ?1 29 69 329 0 71 72 66 -.001109293597402712 .06488 .00510680601890862 18 71 18
8 0 73 68 74 69 ?1 29 72 328 0 74 75 69 -.00388564064605512 .06488 .003530127018
922175 18 74 183 0 76 71 77 72 ?1 29 75 327 0 77 78 72 -.00111435935394492 .0648
8 .00513012701892219 18 77 181 0 79 74 80 75 ?1 29 78 326 0 80 81 75 -.003803777
10582077 .06538 .00284455933843383 18 80 174 0 82 77 83 78 5e-7 1 29 81 325 0 83
 84 78 -.00380377710582073 .06538 -.002844559338433885 18 83 172 0 22 80 85 81 5
e-7 1 29 84 324 0 85 86 81 .004047575852800675 .06488 .00129522427289622 18 85 1
67 0 87 83 88 84 ?1 29 86 323 0 88 89 84 .00497727054327549 .06488 .001592726573
84816 18 88 165 0 90 85 91 86 ?1 29 89 322 0 91 92 86 .00497727054327549 .065032
6280323209 .001592726573848155 18 91 163 0 93 88 94 89 5e-7 1 29 92 321 0 94 95
 89 .004047575852800675 .06488 -.00129522427289622 18 94 157 0 96 91 97 92 ?1 29
 95 320 0 97 98 92 .005 .06488 .0016 18 97 152 0 99 94 100 95 ?1 29 98 319 0 100
 101 95 .005 .06488 -.0016 18 100 150 0 102 97 103 98 ?1 29 101 318 0 103 104 98
 -.001114359353944848 .06388 -.00513012701892221 18 103 139 0 105 100 106 101 ?1
 29 104 317 0 106 107 101 -.00388564064605507 .06388 -.00353012701892223 18 106
 137 0 108 103 109 104 ?1 29 107 316 0 109 110 104 -.00388564064605512 .06388 .0
03530127018922175 18 109 133 0 111 106 112 107 ?1 29 110 315 0 112 113 107 -.001
11435935394492 .06388 .00513012701892219 18 112 131 0 114 109 115 110 ?1 29 113
 314 0 115 116 110 .005 .06388 .0016 18 115 127 0 117 112 118 113 ?1 29 116 313
 0 118 119 113 .005 .06388 -.0016 18 118 125 0 120 115 121 116 ?1 29 119 312 0 1
21 122 116 -.00351556284819087 .06388 -.003193909197371995 18 121 119 0 123 118
 124 119 ?1 29 122 311 0 124 125 119 -.00351556284819087 .06438 -.00319390919737
1995 18 124 117 0 126 121 127 122 ?1 29 125 310 0 127 128 122 -.0010082250782093
96 .06388 -.00464152133382009 18 127 115 0 129 124 130 125 ?1 29 128 309 0 130 1
31 125 -.001008225078209394 .06438 -.00464152133382009 18 130 114 0 132 127 133
 128 ?1 29 131 308 0 133 134 128 -.00100822507820946 .06388 .00464152133382007 1
8 133 109 0 135 130 136 131 ?1 29 134 307 0 136 137 131 -.00100822507820946 .064
38 .00464152133382007 18 136 107 0 138 133 139 134 ?1 29 137 306 0 139 140 134 -
.00351556284819091 .06388 .00319390919737195 18 139 105 0 141 136 142 137 ?1 29
 140 305 0 142 143 137 -.003515562848190915 .06438 .00319390919737195 18 142 104
 0 144 139 145 140 ?1 29 143 304 0 145 146 140 .00452378792640034 .06388 -.00144
761213644811 18 145 99 0 147 142 148 143 ?1 29 146 303 0 148 149 143 .0045237879
2640034 .06438 -.00144761213644811 18 148 97 0 150 145 151 146 ?1 29 149 302 0 1
51 152 146 .00452378792640034 .06388 .00144761213644811 18 151 95 0 153 148 154
 149 ?1 29 152 301 0 154 155 149 .00452378792640034 .06438 .00144761213644811 18
 154 94 0 156 151 157 152 ?1 29 155 300 0 157 158 152 0 .065 .007325 18 157 87 0
 159 154 160 155 ?1 29 158 299 0 160 161 155 0 .06488 .007325 18 160 84 0 162 15
7 163 158 ?1 29 161 298 0 163 164 158 0 .06488 .0055 18 163 80 0 165 160 166 161
 ?1 29 164 297 0 166 167 161 0 .06388 .0055 18 166 77 0 168 163 169 164 ?1 29 16
7 296 0 169 170 164 -.000561572096745612 .06538 .00471644727319134 18 169 72 0 1
71 166 172 167 5e-7 1 29 170 295 0 172 173 167 .004365349202566345 .06538 .00187
18879347575 18 172 70 0 174 169 175 170 5e-7 1 29 173 294 0 175 176 170 .0043653
49202566345 .06488 .0018718879347575 18 175 68 0 177 172 178 173 ?1 29 176 293 0
 178 179 173 -.000561572096745612 .06488 .00471644727319134 18 178 67 0 180 175
 181 176 ?1 29 179 292 0 181 182 176 -.000561572096745546 .06538 -.0047164472731
9135 18 181 62 0 183 178 184 179 5e-7 1 29 182 291 0 184 185 179 -.0011092935974
02644 .0650326280323209 -.00510680601890864 18 184 60 0 186 181 187 182 5e-7 1 2
9 185 290 0 187 188 182 -.000561572096745546 .06488 -.00471644727319135 18 187 5
8 0 189 184 190 185 ?1 29 188 289 0 190 191 185 -.00110929359740264 .06488 -.005
10680601890864 18 190 57 0 192 187 193 188 ?1 29 191 288 0 193 194 188 .00497727
05432755 .0650326280323209 -.001592726573848145 18 193 52 0 195 190 196 191 5e-7
 1 29 194 287 0 196 197 191 .004365349202566345 .06538 -.0018718879347575 18 196
 50 0 198 193 199 194 5e-7 1 29 197 286 0 199 200 194 .00497727054327549 .06488
 -.00159272657384816 18 199 48 0 201 196 202 197 ?1 29 200 285 0 202 203 197 .00
4365349202566345 .06488 -.0018718879347575 18 202 47 0 204 199 205 200 ?1 29 203
 284 0 205 206 200 0 0 -.007 18 205 43 0 207 202 208 203 ?1 29 206 283 0 208 209
 203 0 12e-5 -.007 18 208 40 0 210 205 211 206 ?1 29 209 282 0 211 212 206 0 .06
5 .0086 18 211 33 0 213 208 214 209 ?1 29 212 281 0 214 215 209 1102182119232618
e-33 .0646 .009 18 214 30 0 216 211 217 212 ?1 29 215 280 0 217 218 212 11021821
19232618e-33 4e-4 .009 18 217 26 0 219 214 220 215 ?1 29 218 279 0 220 221 215 0
 0 .0086 18 220 23 0 222 217 223 218 ?1 29 221 278 0 223 224 218 0 .059901427129
1086 -.009 18 223 19 0 225 220 226 221 ?1 29 224 277 0 226 227 221 0 .0624985728
708915 -.009 18 226 13 0 228 223 229 224 ?1 29 227 276 0 229 230 224 .0089313708
4989848 .0604208562774651 1093777472332614e-33 18 229 9 0 231 226 232 227 ?1 29
 230 275 0 232 0 227 .00893137084989848 .0619791437225349 1093777472332614e-33 1
8 232 6 0 233 229 0 230 ?1 17 233 0 234 233 233 232 235 236 0 235 +15 234 4 0 23
3 237 0 17 235 0 238 235 235 232 233 236 0 0 -16 236 5 0 ?233 239 0 240 0 0 1 16
 239 8 0 ?231 241 236 242 0 0 1 31 240 343 0 236 0 242 0 +-1452092623872534e-36
 .0619791437225349 0 186370316781645e-32 -1 0 1 186370316781645e-32 0 .008931370
84989848 31 242 344 0 239 240 243 0 +1452092623872534e-36 .0604208562774651 0 -1
86370316781645e-32 1 0 -1 -186370316781645e-32 0 .00893137084989848 31 243 345 0
 241 242 244 0 +0 .0624985728708915 0 -186370316781645e-32 1 0 1 186370316781645
e-32 0 .009 16 241 12 0 ?228 245 239 243 0 0 1 31 244 346 0 245 243 246 0 +0 .05
99014271291086 0 186370316781645e-32 -1 0 1 186370316781645e-32 0 .009 16 245 18
 0 ?225 247 241 244 0 0 1 31 246 347 0 247 244 248 0 +0 0 0 0 -1 0 0 0 1 .0086 1
6 247 22 0 ?222 249 245 246 0 0 1 31 248 348 0 249 246 250 0 +0 4e-4 0 0 1 0 0 0
 1 .009 16 249 25 0 ?219 251 247 248 0 0 1 31 250 349 0 251 248 252 0 +0 .0646 0
 0 -1 0 0 0 1 .009 16 251 29 0 ?216 253 249 250 0 0 1 31 252 350 0 253 250 254 0
 +0 .065 0 0 1 0 0 0 1 .0086 16 253 32 0 ?213 255 251 252 0 0 1 31 254 351 0 255
 252 256 0 +0 12e-5 0 0 -1 0 0 0 -1 .007 16 255 39 0 ?210 257 253 254 0 0 1 31 2
56 352 0 257 254 258 0 +0 0 0 0 -1 0 0 0 -1 .007 16 257 42 0 ?207 259 255 256 0
 0 1 31 258 353 0 259 256 260 0 +.0048248826797236 .06488 -.00206893864744782 0
 1 0 0 0 1 5e-4 16 259 46 0 ?261 262 257 258 0 0 1 31 260 357 0 263 258 264 0 +-
.000620687912300521 .06488 -.00521294029464409 0 1 0 0 0 1 5e-4 16 263 56 0 ?265
 266 267 260 0 0 1 31 264 361 0 268 260 269 0 +0 .06488 0 0 1 0 0 0 1 .004749761
89936268 16 268 66 0 ?270 271 272 264 0 0 1 31 269 365 0 273 264 274 0 +0 .06388
 0 0 1 0 0 0 1 .0055 16 273 76 0 ?168 275 276 269 0 0 1 31 274 366 0 275 269 277
 0 +0 .06488 0 0 1 0 0 0 1 .0055 16 275 79 0 ?165 278 273 274 0 0 1 31 277 367 0
 278 274 279 0 +0 .06488 0 0 1 0 0 0 1 .007325 16 278 83 0 ?162 280 275 277 0 0
 1 31 279 368 0 280 277 281 0 +0 .065 0 0 1 0 0 0 1 .007325 16 280 86 0 ?159 282
 278 279 0 0 1 30 281 369 0 282 279 283 0 +.00452378792640034 .06438 .0014476121
3644811 0 -1 -1332267629550206e-30 16 282 93 0 ?284 285 280 281 0 0 1 31 283 370
 0 285 281 286 0 +0 .06438 0 0 1 0 0 0 1 .00474976189936268 16 285 96 0 ?287 288
 282 283 0 0 1 30 286 371 0 288 283 289 0 +.00452378792640034 .06438 -.001447612
13644811 0 -1 0 16 288 98 0 ?290 291 285 286 0 0 1 31 289 372 0 291 286 292 0 +0
 .06388 0 0 -1 0 0 0 1 .00474976189936268 16 291 100 0 ?293 294 288 289 0 0 1 30
 292 373 0 294 289 295 0 +-.003515562848190915 .06438 .00319390919737195 8881784
19700138e-30 -1 -2664535259100415e-30 16 294 103 0 ?296 297 291 292 0 0 1 31 295
 374 0 297 292 298 0 +0 .06438 0 0 1 0 0 0 1 .00474976189936268 16 297 106 0 ?29
9 300 294 295 0 0 1 30 298 375 0 300 295 301 0 +-.00100822507820946 .06438 .0046
4152133382007 0 -1 0 16 300 108 0 ?302 303 297 298 0 0 1 31 301 376 0 303 298 30
4 0 +0 .06388 0 0 -1 0 0 0 1 .00474976189936268 16 303 110 0 ?305 306 300 301 0
 0 1 30 304 377 0 306 301 307 0 +-.001008225078209394 .06438 -.00464152133382009
 -444089209850069e-29 -1 0 16 306 113 0 ?308 309 303 304 0 0 1 31 307 378 0 309
 304 310 0 +0 .06438 0 0 1 0 0 0 1 .00474976189936268 16 309 116 0 ?311 312 306
 307 0 0 1 30 310 379 0 312 307 313 0 +-.00351556284819087 .06438 -.003193909197
371995 0 -1 0 16 312 118 0 ?314 315 309 310 0 0 1 31 313 380 0 315 310 316 0 +0
 .06388 0 0 -1 0 0 0 1 .00474976189936268 16 315 120 0 ?317 318 312 313 0 0 1 30
 316 381 0 318 313 319 0 +.005 .06388 -.0016 -.952424147199325 0 .30477572710378
2 16 318 124 0 ?147 320 315 316 0 0 1 31 319 382 0 320 316 321 0 +0 .06388 0 0 1
 0 0 0 -1 .00524976189936268 16 320 126 0 ?322 323 318 319 0 0 1 30 321 383 0 32
3 319 324 0 +.00452378792640034 .06388 .00144761213644811 .952424147199324 0 .30
4775727103784 16 323 128 0 ?325 326 320 321 0 0 1 30 324 384 0 326 321 327 0 +-.
00111435935394492 .06388 .00513012701892219 .212268551470919 0 -.977211370204235
 16 326 130 0 ?135 328 323 324 0 0 1 31 327 385 0 328 324 329 0 +0 .06388 0 0 1
 0 0 0 -1 .00524976189936268 16 328 132 0 ?330 331 326 327 0 0 1 30 329 386 0 33
1 327 332 0 +-.00351556284819091 .06388 .00319390919737195 -.740155595728415 0 .
67243564310045 16 331 134 0 ?333 334 328 329 0 0 1 30 332 387 0 334 329 335 0 +-
.00388564064605507 .06388 -.00353012701892223 .740155595728403 0 .67243564310046
2 16 334 136 0 ?123 336 331 332 0 0 1 31 335 388 0 336 332 337 0 +0 .06388 0 0 1
 0 0 0 -1 .00524976189936268 16 336 138 0 ?338 339 334 335 0 0 1 30 337 389 0 33
9 335 340 0 +-.001008225078209396 .06388 -.00464152133382009 -.2122685514709025
 0 -.977211370204238 16 339 140 0 ?341 342 336 337 0 0 1 30 340 390 0 342 337 34
3 0 +.005 .06488 -.0016 0 -1 0 16 342 149 0 ?120 344 339 340 0 0 1 31 343 391 0
 344 340 345 0 +0 .06488 0 0 -1 0 0 0 -1 .00524976189936268 16 344 151 0 ?346 34
7 342 343 0 0 1 30 345 392 0 347 343 348 0 +.005 .06488 .0016 0 -1 0 16 347 153
 0 ?117 349 344 345 0 0 1 30 348 393 0 349 345 350 0 +.00497727054327549 .06488
 -.00159272657384816 -.952424147199325 0 .304775727103781 16 349 156 0 ?351 352
 347 348 0 0 1 31 350 395 0 353 348 354 0 +.00404757585280068 .06438 -.001295224
272896204 .304775727103781 0 .952424147199325 .952424147199325 0 -.3047757271037
81 5e-4 16 353 159 0 ?355 356 352 350 0 0 1 30 354 398 0 357 350 358 0 +.0040475
75852800675 .06488 .00129522427289622 .952424147199324 0 .304775727103783 16 357
 166 0 ?359 360 361 354 0 0 1 31 358 399 0 360 354 362 0 +.004047575852800675 .0
6438 .001295224272896212 .304775727103783 0 -.952424147199325 -.952424147199324
 0 -.304775727103783 5e-4 16 360 168 0 ?156 363 357 358 0 0 1 30 362 405 0 364 3
58 365 0 +-.00111435935394492 .06488 .00513012701892219 0 -1 0 16 364 180 0 ?114
 366 367 362 0 0 1 31 365 406 0 366 362 368 0 +0 .06488 0 0 -1 0 0 0 -1 .0052497
6189936268 16 366 182 0 ?369 370 364 365 0 0 1 30 368 407 0 370 365 371 0 +-.003
88564064605512 .06488 .003530127018922175 0 -1 0 16 370 184 0 ?111 372 366 368 0
 0 1 30 371 408 0 372 368 373 0 +-.001109293597402712 .06488 .00510680601890862
 .212268551470919 0 -.977211370204235 16 372 187 0 ?374 375 370 371 0 0 1 31 373
 411 0 376 371 377 0 +-.000902090802474017 .06438 .004152915648717955 -.97721137
0204235 0 -.212268551470919 -.212268551470919 0 .977211370204235 5e-4 16 376 193
 0 ?378 379 380 373 0 0 1 30 377 414 0 381 373 382 0 +-.003145485050326705 .0648
8 .002857691375821725 -.740155595728415 0 .672435643100449 16 381 200 0 ?28 383
 384 377 0 0 1 31 382 415 0 383 377 385 0 +-.0031454850503267 .06438 .0028576913
7582173 .67243564310045 0 .740155595728415 .740155595728415 0 -.67243564310045 5
e-4 16 383 202 0 ?144 386 381 382 0 0 1 30 385 416 0 386 382 387 0 +-.0038856406
4605507 .06488 -.00353012701892223 0 -1 0 16 386 205 0 ?108 388 383 385 0 0 1 31
 387 417 0 388 385 389 0 +0 .06488 0 0 -1 0 0 0 -1 .00524976189936268 16 388 207
 0 ?390 391 386 387 0 0 1 30 389 418 0 391 387 392 0 +-.001114359353944848 .0648
8 -.00513012701892221 0 -1 0 16 391 209 0 ?105 393 388 389 0 0 1 30 392 419 0 39
3 389 394 0 +-.00386797694587277 .06488 -.003514079445060505 .740155595728405 0
 .672435643100461 16 393 212 0 ?395 396 391 392 0 0 1 31 394 422 0 397 392 398 0
 +-.003145485050326655 .06438 -.00285769137582178 .672435643100462 0 -.740155595
728404 -.740155595728404 0 -.672435643100462 5e-4 16 397 218 0 ?399 400 401 394
 0 0 1 30 398 424 0 402 394 403 0 +-.000902090802473944 .06488 -.004152915648717
965 -.212268551470903 0 -.977211370204238 16 402 222 0 ?192 404 400 398 0 0 1 31
 403 425 0 404 398 405 0 +-.00090209080247395 .06438 -.004152915648717965 -.9772
11370204238 0 .2122685514709035 .2122685514709035 0 .977211370204238 5e-4 16 404
 224 0 ?132 406 402 403 0 0 1 31 405 426 0 406 403 407 0 +0 .06488 0 0 1 0 0 0 1
 .00474976189936268 16 406 227 0 ?189 408 404 405 0 0 1 31 407 427 0 408 405 409
 0 +0 .06488 0 0 1 0 0 0 1 .00474976189936268 16 408 230 0 ?410 411 406 407 0 0
 1 31 409 430 0 412 407 413 0 +0 .06488 0 0 -1 0 -177635683940025e-29 0 1 .00424
9761899362675 16 412 237 0 ?87 414 415 409 0 0 1 31 413 431 0 414 409 416 0 +.00
48248826797236 .06488 .00206893864744782 0 1 0 0 0 1 5e-4 16 414 238 0 ?177 417
 412 413 0 0 1 31 416 432 0 417 413 418 0 +-.000620687912300595 .06488 .00521294
029464408 0 1 0 0 0 1 5e-4 16 417 239 0 ?73 419 414 416 0 0 1 31 418 433 0 419 4
16 420 0 +0 .06488 0 0 -1 0 0 0 1 .004249761899362675 16 419 240 0 ?59 30 417 41
8 0 0 1 31 420 434 0 30 418 421 0 +-.004204194767423045 .06488 .0031440016471962
45 0 1 0 0 0 1 5e-4 16 30 241 0 ?24 38 419 420 0 0 1 31 421 435 0 38 420 422 0 +
-.004204194767423 .06488 -.003144001647196305 0 1 0 0 0 1 5e-4 16 38 242 0 ?37 4
23 30 421 0 0 1 31 422 436 0 423 421 424 0 +0 .06488 0 0 -1 0 -177635683940025e-
29 0 1 .004249761899362675 16 423 243 0 ?40 425 38 422 0 0 1 133 424 619 0 426 4
22 427 0 +427 .00497727054327551 .0650326280323208 -.001592726573848165 .0043653
49202566345 .06538 -.0018718879347575 0 1 17 426 0 428 429 195 196 430 431 424 4
32 +137 427 620 0 1 424 433 434 +435 436 0 ?133 433 621 0 430 427 437 0 +437 .00
4365349202566345 .06538 -.0018718879347575 .00497727054327552 .0650326280323208
 -.001592726573848165 0 1 141 434 424 434 434 427 54 435 474 0 438 439 440 441 +
0 .06488 0 0 -1 0 .00474976189936268 5e-4 0 0 -1 134 436 0 0 0 0 0 0 +442 443 13
6 442 2 9 2 5 5 FFF1 444 445 446 135 443 2 0 45 18 444 1.26109338225244 -.310207
316807376 1.26109338225244 -.59593091455018 1.258604248552024 -.755397004034298
 1.254829111494854 -.997250763706862 1.243621765673406 -1.168143377179472 1.2312
32583130254 -1.35705695380319 1.210470127096046 -1.463857769296702 1.18968089352
926 -1.5707963267949 1.16570638403773 -1.5707963267949 127 5 445 3 2 2 2 3 128 5
 446 0 .25 .5 .75 1 14 438 248 447 ?448 449 428 4 435 +0 0 448 449 21 54 439 473
 0 448 450 435 451 +0 .06488 0 0 -1 0 .00474976189936268 5e-4 0 0 -1 54 440 475
 0 449 435 452 453 +0 .06488 0 0 -1 0 .00474976189936268 5e-4 0 0 -1 141 441 427
 454 454 435 141 454 455 441 441 435 137 455 676 0 1 456 457 458 +435 459 0 ?133
 456 675 0 93 460 455 0 +455 .004365349202566345 .06538 .0018718879347575 .00497
727054327549 .0650326280323209 .00159272657384816 0 1 133 457 677 0 174 455 461
 0 +461 .00497727054327549 .0650326280323209 .00159272657384816 .004365349202566
345 .06538 .0018718879347575 0 1 141 458 456 458 458 455 134 459 0 0 0 0 0 0 +46
2 463 136 462 2 9 2 5 5 FFF1 464 465 466 135 463 2 0 45 18 464 1.975886269552065
 -1.5707963267949 1.950800014642755 -1.5707963267949 1.92932048764266 -1.4543404
06650228 1.909157055404635 -1.34501998006243 1.897219434933865 -1.15648582793494
 1.886550659740715 -.987990901311522 1.88292234923455 -.751211911932538 1.880499
271337355 -.593084889807602 1.880499271337355 -.310207316807551 127 5 465 3 2 2
 2 3 128 5 466 0 .25 .5 .75 1 17 174 0 467 468 469 172 93 23 457 429 -137 461 67
8 0 1 457 470 471 +472 473 0 ?133 470 680 0 271 461 474 0 +474 .0043653492025663
45 .06488 .0018718879347575 .004365349202566345 .06538 .0018718879347575 0 5e-4
 141 471 457 471 471 461 51 472 479 0 475 476 477 478 +.0048248826797236 .06488
 .00206893864744782 0 -1 0 5e-4 0 0 1 134 473 0 0 0 0 0 0 +479 480 136 479 2 9 2
 5 5 FFF1 481 482 483 135 480 2 0 45 18 481 3.45129559813225 -.00015262803232085
6 3.38184021740747 -.000260963794148578 3.22800313348166 -.000341256926459352 3.
078111452311725 -.0004194908105224835 2.86761912622096 -.000457696342675479 2.69
34159358939 -.000489315194121516 2.43996992403453 -.000496622606336275 2.3228303
7731216 -5e-4 1.975886269552065 -5e-4 127 5 482 3 2 2 2 3 128 5 483 0 .25 .5 .75
 1 14 475 260 484 ?485 486 467 4 472 -0 0 485 486 21 54 476 478 0 485 487 472 0
 +0 .06438 0 0 -1 0 .004249761899362675 5e-4 0 0 1 51 477 480 0 486 472 488 489
 +-.000620687912300595 .06488 .00521294029464408 0 -1 0 5e-4 0 0 1 141 478 461 4
78 478 472 14 486 262 490 ?475 491 492 4 477 -0 0 475 491 21 51 488 481 0 491 47
7 493 494 +-.004204194767423045 .06488 .003144001647196245 0 -1 0 5e-4 0 0 1 141
 489 495 489 489 477 137 495 650 0 1 496 497 498 +477 499 0 ?133 496 649 0 67 50
0 495 0 +495 -.000561572096745613 .06538 .00471644727319135 -.001109293597402712
 .0650326280323209 .00510680601890862 0 1 133 497 652 0 380 495 501 0 +501 -.001
109293597402726 .0650326280323209 .00510680601890862 -.001114359353944936 .06488
 .00513012701892219 5.97297799037206 6.28318530717959 141 498 496 498 498 495 13
4 499 0 0 0 0 0 0 +502 503 136 502 2 9 2 5 5 FFF1 504 505 506 135 503 2 0 45 18
 504 3.26010148643093 -5e-4 2.92924765565483 -5e-4 2.81575165506496 -.0004971556
87622916 2.55761249695196 -.000490686486958444 2.38139640045793 -.00046001392968
0897 2.16469445148273 -.0004222943168059015 2.01092155897644 -.00034278538601012
5 1.85487726859029 -.0002621020192399955 1.78469215785075 -.000152628032320856 1
27 5 505 3 2 2 2 3 128 5 506 0 .25 .5 .75 1 16 380 192 0 ?79 376 375 497 0 0 1 3
1 501 653 0 1 497 507 508 +-.001008225078209476 .06488 .00464152133382007 .97721
1370204235 0 .212268551470919 -.212268551470919 0 .977211370204235 5e-4 133 507
 654 0 375 501 509 0 +509 -.001109293597402712 .06488 .00510680601890862 -.00110
9293597402726 .0650326280323209 .00510680601890862 0 .0001526280323208425 141 50
8 497 508 508 501 16 375 190 0 ?510 380 372 507 0 0 1 30 509 655 0 1 507 511 512
 +-.001109293597402712 .06488 .00510680601890862 -945625721609786e-28 1 -2327694
08396255e-28 133 511 656 0 513 509 514 0 +514 -.00380377710582077 .06538 .002844
55933843383 -.000561572096745612 .06538 .00471644727319135 2.21290393523432 3.02
3083820748655 141 512 507 512 512 509 16 513 175 0 ?515 516 517 511 0 0 1 31 514
 657 0 1 511 518 519 +0 .06538 0 0 1 0 0 0 -1 .00474976189936268 133 518 658 0 2
76 514 520 0 +520 -.000561572096745612 .06538 .00471644727319134 -.0005615720967
45612 .06488 .00471644727319134 0 5e-4 141 519 511 519 519 514 16 276 73 0 ?521
 273 522 518 0 0 1 30 520 659 0 1 518 523 524 +-.000561572096745612 .06538 .0047
1644727319134 0 -1 0 133 523 660 0 522 520 525 0 +525 -.000561572096745612 .0653
8 .00471644727319134 .004365349202566345 .06538 .0018718879347575 6.164676474338
45 7.44889169121732 141 524 518 524 524 520 16 522 71 0 ?526 276 271 523 0 0 1 3
1 525 661 0 1 523 527 528 +0 .06538 0 0 1 0 0 0 1 .00474976189936268 133 527 662
 0 64 525 529 0 +529 -.00380377710582077 .06538 .00284455933843383 -.00386797694
587282 .0650326280323209 .00351407944506045 0 1 141 528 523 528 528 525 17 64 0
 530 76 531 62 82 532 527 533 +137 529 663 0 1 527 534 535 +439 536 0 ?133 534 6
64 0 82 529 537 0 +537 -.00386797694587282 .0650326280323209 .003514079445060455
 -.00380377710582077 .06538 .00284455933843383 0 1 141 535 527 535 535 529 134 5
36 0 0 0 0 0 0 +538 539 136 538 2 9 2 5 5 FFF1 540 541 542 135 539 2 0 45 18 540
 4.070281371945265 -1.5707963267949 4.045195117036255 -1.5707963267949 4.0237155
90035905 -1.454340406650464 4.00355215780002 -1.3450199800758 3.99161453732709 -
1.156485827935326 3.9809457621348 -.987990901344441 3.977317451627755 -.75121191
1932887 3.974894373730555 -.593084889824136 3.974894373730555 -.3102073168075215
 127 5 541 3 2 2 2 3 128 5 542 0 .25 .5 .75 1 17 82 0 543 31 533 80 64 532 534 5
44 -137 537 665 0 1 534 545 546 +488 547 0 ?133 545 667 0 411 537 548 0 +548 -.0
0380377710582077 .06488 .00284455933843383 -.00380377710582077 .06538 .002844559
33843383 0 5e-4 141 546 534 546 546 537 134 547 0 0 0 0 0 0 +549 550 136 549 2 9
 2 5 5 FFF1 551 552 553 135 550 2 0 45 18 551 5.54569070052545 -.000152628032320
8425 5.47623531981728 -.000260963794122688 5.32239823587463 -.000341256926459490
5 5.17250655480898 -.000419490810484988 4.96201422861373 -.000457696342675548 4.
7878110383886 -.00048931519411848 4.53436502642725 -.000496622606336289 4.417225
47970712 -5e-4 4.070281371945265 -5e-4 127 5 552 3 2 2 2 3 128 5 553 0 .25 .5 .7
5 1 16 411 233 0 ?544 415 408 545 0 0 1 30 548 668 0 1 545 554 555 +-.0038037771
0582077 .06488 .00284455933843383 -2664535259100375e-30 1 0 133 554 669 0 517 54
8 556 0 +556 -.00380377710582073 .06538 -.002844559338433885 -.00380377710582077
 .06538 .00284455933843383 4.07028137194525 5.35449658882412 141 555 545 555 555
 548 16 517 173 0 ?557 513 363 554 0 0 1 31 556 670 0 1 554 558 559 +0 .06538 0
 0 1 0 0 0 1 .00474976189936268 133 558 671 0 384 556 560 0 +560 -.0038679769458
72815 .0650326280323209 .00351407944506046 -.00386797694587282 .06488 .003514079
44506045 0 .0001526280323208425 141 559 554 559 559 556 16 384 198 0 ?561 381 37
9 558 0 0 1 30 560 672 0 1 558 562 563 +-.003867976945872815 .0650326280323209 .
00351407944506046 -3491541125943825e-29 -1 -46553881679251e-27 133 562 673 0 379
 560 460 0 +460 -.003885640646055115 .06488 .00353012701892218 -.003867976945872
815 .0650326280323209 .00351407944506046 3.141592653589795 3.451799970397315 141
 563 558 563 563 560 16 379 196 0 ?564 384 376 562 0 0 1 31 460 674 0 1 562 456
 565 +-.00351556284819091 .06488 .003193909197371955 -.67243564310045 0 -.740155
595728415 .740155595728415 0 -.67243564310045 5e-4 141 565 562 565 565 460 17 56
4 0 566 561 567 62 76 379 0 0 +15 566 195 0 564 568 0 17 561 0 566 569 564 60 53
3 384 0 0 +17 567 0 566 564 333 74 111 370 0 369 -17 76 0 530 570 64 74 564 379
 0 567 -15 530 245 0 76 448 0 17 570 0 530 571 76 77 369 366 0 572 -17 571 0 530
 171 570 65 79 380 0 510 -17 369 0 573 111 572 74 570 366 0 0 +17 572 0 573 369
 330 77 114 364 0 0 -15 573 179 0 572 574 0 17 330 0 573 572 111 112 575 328 0 5
76 +17 114 0 577 135 79 112 572 364 0 330 +15 577 186 0 578 579 0 17 135 0 577 5
80 114 133 576 326 0 581 +17 79 0 577 114 510 77 571 380 0 570 +17 510 0 577 79
 578 65 582 375 0 0 +17 578 0 577 510 378 71 374 372 0 0 -17 582 0 492 180 67 71
 510 375 0 578 -15 492 263 0 67 486 0 17 180 0 492 583 582 178 73 417 0 521 -17
 67 0 492 582 583 65 171 425 496 571 -17 583 0 492 67 180 169 521 276 0 584 -17
 171 0 530 531 571 169 67 425 585 515 +16 425 246 0 5e-7 171 532 423 0 0 0 1 16
 532 247 0 5e-7 64 23 425 0 0 0 1 16 23 250 0 5e-7 93 9 532 0 0 0 1 17 93 0 428
 99 429 91 174 23 456 469 +15 428 249 0 99 438 0 17 99 0 428 586 93 97 587 356 0
 588 -17 429 0 428 93 426 172 589 516 0 526 -17 469 0 467 174 90 91 590 361 0 58
7 -15 467 261 0 174 475 0 17 90 0 467 469 468 88 177 414 0 359 -17 590 0 591 592
 587 88 469 361 0 0 +16 361 164 0 ?590 357 356 593 0 0 1 17 587 0 591 590 588 91
 99 356 0 0 +15 591 161 0 587 594 0 17 588 0 591 587 325 97 117 347 0 346 -16 35
6 162 0 ?587 361 353 595 0 0 1 133 595 684 0 356 596 597 0 +597 .005 .06488 .001
6 .00497727054327549 .0650326280323209 .001592726573848155 3.141592653589795 3.4
51799970397315 30 596 683 0 1 593 595 598 +.00497727054327549 .0650326280323209
 .001592726573848155 -1163847041981274e-29 -1 421894552718212e-28 31 597 685 0 1
 595 599 600 +.00452378792640034 .06488 .001447612136448104 -.304775727103783 0
 .952424147199325 -.952424147199324 0 -.304775727103783 5e-4 133 599 686 0 22 59
7 601 0 +601 -.00386797694587277 .0650326280323209 -.003514079445060505 -.003803
77710582073 .06538 -.002844559338433885 0 1 141 600 595 600 600 597 17 22 0 602
 603 604 83 45 9 599 35 +137 601 687 0 1 599 605 606 +440 607 0 ?133 605 688 0 4
5 601 608 0 +608 -.00380377710582073 .06538 -.002844559338433885 -.0038679769458
7277 .0650326280323209 -.003514079445060505 0 1 141 606 599 606 606 601 134 607
 0 0 0 0 0 0 +609 610 136 609 2 9 2 5 5 FFF1 611 612 613 135 610 2 0 45 18 611 5
.44988358703884 -.310207316807522 5.44988358703884 -.595930914592333 5.447394453
33843 -.755397004033834 5.44361931627983 -.997250763734302 5.43241197045984 -1.1
68143377178902 5.42002278791547 -1.357056953815004 5.3992603318825 -1.4638577692
9644 5.37847109831455 -1.570796326794895 5.35449658882413 -1.570796326794895 127
 5 612 3 2 2 2 3 128 5 613 0 .25 .5 .75 1 17 45 0 34 36 35 41 22 9 605 604 -137
 608 689 0 1 605 614 615 +493 616 0 ?133 614 691 0 401 608 617 0 +617 -.00386797
694587276 .0650326280323209 -.00351407944506052 -.00388564064605506 .06488 -.003
530127018922245 5.97297799037206 6.28318530717959 141 615 605 615 615 608 51 493
 482 0 618 488 17 619 +-.004204194767423 .06488 -.003144001647196305 0 -1 0 5e-4
 0 0 1 134 616 0 0 0 0 0 0 +620 621 136 620 2 9 2 5 5 FFF1 622 623 624 135 621 2
 0 45 18 622 5.35449658882413 -5e-4 5.02364275840283 -5e-4 4.91014675745795 -.00
0497155687622916 4.65200759948382 -.000490686486982159 4.4757915028508 -.0004600
13929680828 4.25908955383017 -.000422294316798426 4.105316661369435 -.0003427853
86010028 3.94927237096773 -.000262102019215444 3.879087260243945 -.0001526280323
208425 127 5 623 3 2 2 2 3 128 5 624 0 .25 .5 .75 1 14 618 266 625 ?491 626 34 4
 493 -0 0 491 626 21 50 17 483 0 626 493 5 0 +0 12e-5 0 0 -1 0 0 0 -1 141 619 60
8 619 619 493 14 626 268 627 ?618 15 628 4 17 +0 0 618 15 21 81 1 627 615 629 62
6 630 0 625 631 632 14 15 270 631 ?626 0 633 4 5 +0 0 626 0 21 15 628 269 0 210
 626 0 13 21 2 0 0 0 0 0 0 8 15 17 210 0 628 210 210 208 634 255 0 634 +17 634 0
 635 634 634 208 210 255 0 0 -15 635 38 0 634 636 0 14 636 37 637 ?638 639 640 4
 641 -0 0 638 639 21 81 1 637 507 629 636 642 0 643 644 645 14 638 34 643 ?646 6
36 647 4 648 +0 0 646 636 21 14 639 44 644 ?636 649 650 4 651 -0 0 636 649 21 15
 640 41 0 207 636 635 51 641 447 0 636 648 651 0 +0 12e-5 0 0 1 0 .007 0 0 -1 51
 648 446 0 638 652 641 0 +0 .065 0 0 -1 0 .009 0 0 -1 51 651 448 0 639 641 653 6
54 +.0048248826797236 .06488 -.00206893864744782 0 -1 0 5e-4 0 0 1 51 653 449 0
 649 651 655 656 +-.000620687912300521 .06488 -.00521294029464409 0 -1 0 5e-4 0
 0 1 141 654 437 654 654 651 137 437 622 0 1 433 657 658 +651 659 0 ?133 657 624
 0 352 437 660 0 +660 .0049772705432755 .0650326280323209 -.001592726573848145 .
005 .06488 -.0016 5.97297799037207 6.28318530717959 141 658 433 658 658 437 134
 659 0 0 0 0 0 0 +661 662 136 661 2 11 2 6 5 FFF1 663 664 665 135 662 2 0 45 22
 663 1.16570638403773 -5e-4 .834852553616429 -5e-4 .721356552672101 -.0004971556
8762293 .463217394895843 -.000490686486987132 .2870012980650225 -.00046001392968
0952 .126333847970891 -.000432047803663638 0 -.0003809935400611725 -.10811572389
30416 -.0003373016177785665 -.1875424323831095 -.000278571583864365 -.2662892160
36521 -.000220344302858789 -.309702944542509 -.000152628032320773 127 6 664 3 2
 2 2 2 3 128 6 665 0 .25 .5 .68621826171875 .843109130859375 1 16 352 158 0 ?102
 353 349 657 0 0 1 31 660 625 0 1 657 666 667 +.00452378792640034 .06488 -.00144
7612136448096 -.304775727103781 0 -.952424147199325 .952424147199325 0 -.3047757
27103781 5e-4 133 666 626 0 267 660 668 0 +668 .00497727054327549 .06488 -.00159
272657384816 .0049772705432755 .0650326280323209 -.001592726573848145 0 .0001526
280323208425 141 667 657 667 667 660 16 267 53 0 ?669 263 431 666 0 0 1 30 668 6
27 0 1 666 670 671 +.00497727054327549 .06488 -.00159272657384816 34915411259438
25e-29 1 100381807370885e-27 133 670 628 0 367 668 672 0 +672 .00436534920256634
5 .06538 -.0018718879347575 -.000561572096745546 .06538 -.00471644727319135 1.97
5886269552065 3.260101486430915 141 671 666 671 671 668 16 367 177 0 ?183 364 51
6 670 0 0 1 31 672 629 0 1 670 673 674 +0 .06538 0 0 1 0 0 0 1 .0047497618993626
8 133 673 630 0 516 672 675 0 +675 .004365349202566345 .06538 .0018718879347575
 .004365349202566345 .06538 -.0018718879347575 4.307299037627525 5.1174789231418
6 141 674 670 674 674 672 16 516 176 0 ?589 367 513 673 0 0 1 31 675 631 0 1 673
 676 677 +0 .06538 0 0 1 0 177635683940025e-29 0 -1 .00474976189936268 133 676 6
32 0 262 675 678 0 +678 .004365349202566345 .06538 -.0018718879347575 .004365349
202566345 .06488 -.0018718879347575 0 5e-4 141 677 673 677 677 675 16 262 49 0 ?
679 431 259 676 0 0 1 30 678 633 0 1 676 680 681 +.004365349202566345 .06538 -.0
018718879347575 0 -1 0 133 680 634 0 682 678 683 0 +683 -.000561572096745547 .06
538 -.00471644727319135 -.00110929359740264 .0650326280323209 -.0051068060189086
4 0 1 141 681 676 681 681 678 17 682 0 602 53 603 184 684 685 680 686 +137 683 6
35 0 1 680 687 688 +440 689 0 ?133 687 636 0 684 683 690 0 +690 -.00110929359740
264 .0650326280323209 -.00510680601890864 -.000561572096745546 .06538 -.00471644
727319135 0 1 141 688 680 688 688 683 134 689 0 0 0 0 0 0 +691 692 136 691 2 9 2
 5 5 FFF1 693 694 695 135 692 2 0 45 18 693 6.16467647433847 -1.5707963267949 6.
13959021942825 -1.5707963267949 6.11811069242916 -1.454340406650752 6.0979472601
9047 -1.345019980054758 6.08600963972032 -1.15648582793581 6.07534086452891 -.98
7990901338823 6.07171255402096 -.751211911933227 6.06928947612375 -.593084889867
779 6.06928947612375 -.310207316807522 127 5 694 3 2 2 2 3 128 5 695 0 .25 .5 .7
5 1 17 684 0 696 697 686 181 682 685 687 0 -137 690 637 0 1 687 698 699 +653 700
 0 ?133 698 639 0 363 690 701 0 +701 -.000561572096745546 .06538 -.0047164472731
9135 -.00380377710582073 .06538 -.002844559338433885 .1185088328411216 .92868871
8355457 141 699 687 699 699 690 134 700 0 0 0 0 0 0 +702 703 136 702 2 11 2 6 5
 FFF1 704 705 706 135 703 2 0 45 22 704 1.356900495739066 -.0001526280323208425
 1.28744511503003 -.000260963794124034 1.133608031088006 -.0003412569264596155 .
983716350018061 -.000419490810486485 .773224023826811 -.000457696342675645 .6159
45357679052 -.000486243298523892 .4005849675741845 -.000494752792321612 .2716457
815380135 -.000499847541654689 0 -.000499985290206534 -.0290083147080914 -5e-4 -
.1185088328411216 -5e-4 127 6 705 3 2 2 2 2 3 128 6 706 0 .25 .5 .71884155273437
5 .93768310546875 1 16 363 171 0 ?707 517 360 698 0 0 1 31 701 640 0 1 698 708 7
09 +0 .06538 0 0 1 0 0 0 -1 .00474976189936268 133 708 641 0 272 701 710 0 +710
 -.000561572096745546 .06488 -.00471644727319135 -.000561572096745546 .06538 -.0
0471644727319135 0 5e-4 141 709 698 709 709 701 16 272 63 0 ?711 268 685 708 0 0
 1 30 710 642 0 1 708 712 713 +-.000561572096745546 .06488 -.00471644727319135 -
2220446049250315e-31 1 -177635683940025e-29 133 712 643 0 400 710 714 0 +714 -.0
01114359353944852 .06488 -.0051301270189222 -.001109293597402644 .06503262803232
09 -.00510680601890864 3.141592653589795 3.451799970397315 141 713 708 713 713 7
10 16 400 221 0 ?186 402 397 712 0 0 1 31 714 644 0 1 712 715 716 +-.00100822507
8209402 .06488 -.00464152133382009 .977211370204238 0 -.2122685514709035 .212268
5514709035 0 .977211370204238 5e-4 133 715 645 0 266 714 717 0 +717 -.0011092935
97402644 .0650326280323209 -.00510680601890864 -.00110929359740264 .06488 -.0051
0680601890864 0 .0001526280323208425 141 716 712 716 716 714 16 266 59 0 ?718 68
5 263 715 0 0 1 30 717 646 0 1 715 585 719 +-.001109293597402644 .06503262803232
09 -.00510680601890864 3491541125943825e-29 -1 -174577056297191e-28 133 585 647
 0 171 717 500 0 +500 -.00110929359740271 .0650326280323209 .00510680601890862 -
.000561572096745612 .06538 .00471644727319134 0 1 141 719 715 719 719 717 137 50
0 648 0 1 585 496 720 +439 721 0 ?141 720 585 720 720 500 134 721 0 0 0 0 0 0 +7
22 723 136 722 2 9 2 5 5 FFF1 724 725 726 135 723 2 0 45 18 724 3.35548848464564
 -.3102073168075515 3.35548848464564 -.595930914584811 3.352999350945225 -.75539
7004034107 3.349224213886935 -.997250763726074 3.338016868066625 -1.168143377179
204 3.325627685523535 -1.357056953799616 3.30486522948928 -1.46385776929654 3.28
4075995923075 -1.5707963267949 3.26010148643093 -1.5707963267949 127 5 725 3 2 2
 2 3 128 5 726 0 .25 .5 .75 1 17 718 0 727 728 186 190 686 266 0 729 +16 685 61
 0 5e-7 682 272 266 0 0 0 1 15 727 220 0 186 730 0 17 728 0 727 132 718 33 192 4
02 0 0 -17 186 0 727 718 731 184 53 400 0 682 +17 686 0 696 684 729 184 718 266
 0 0 -17 729 0 696 686 697 190 265 263 0 0 -15 696 55 0 729 649 0 17 697 0 696 7
29 684 187 711 272 0 265 -17 265 0 26 204 192 187 729 263 0 0 +15 26 236 0 204 7
32 0 17 204 0 26 261 265 202 189 406 0 679 -17 192 0 26 265 40 190 728 402 0 718
 +17 40 0 26 192 395 33 48 423 0 733 +17 395 0 26 40 37 46 734 393 0 0 +17 48 0
 735 126 733 46 40 423 0 399 -17 733 0 735 48 736 33 132 404 0 728 -15 735 259 0
 733 485 0 17 736 0 735 733 126 130 311 309 0 737 -17 132 0 727 308 728 130 733
 404 0 736 +17 308 0 727 341 132 127 737 306 0 0 +17 341 0 727 731 308 103 129 3
39 0 738 +17 737 0 739 311 317 130 308 306 0 0 -15 739 112 0 737 740 0 17 311 0
 739 314 737 124 736 309 0 0 +17 317 0 739 737 314 127 741 315 0 308 +17 314 0 7
39 317 311 121 742 312 0 0 +17 741 0 743 744 129 121 317 315 0 314 -15 743 135 0
 744 745 746 17 744 0 743 738 741 106 123 334 0 0 -17 129 0 743 741 738 127 341
 339 0 317 -17 738 0 743 129 744 103 338 336 0 0 -17 338 0 747 748 105 106 738 3
36 0 744 +15 747 204 0 748 749 0 17 748 0 747 390 338 54 108 386 0 0 -17 105 0 7
47 338 390 103 731 391 0 341 +17 390 0 747 105 748 51 750 388 0 0 +17 731 0 727
 186 341 51 105 391 0 390 -17 750 0 602 604 53 54 390 388 0 748 -15 602 252 0 53
 449 0 17 604 0 602 22 750 41 56 401 0 751 -17 53 0 602 750 682 51 186 400 0 731
 -17 56 0 752 108 751 54 604 401 0 750 +16 401 217 0 ?56 397 396 614 0 0 1 17 75
1 0 752 56 734 41 36 396 0 0 +15 752 211 0 734 753 0 17 734 0 752 751 399 49 395
 393 0 0 -17 36 0 34 32 45 49 751 396 0 734 -16 396 215 0 ?751 401 393 754 0 0 1
 133 754 693 0 396 617 755 0 +755 -.00386797694587277 .06488 -.00351407944506050
5 -.00386797694587276 .0650326280323209 -.00351407944506052 0 .00015262803232084
25 31 617 692 0 1 614 754 756 +-.00351556284819086 .06488 -.00319390919737201 -.
672435643100462 0 .740155595728404 -.740155595728404 0 -.672435643100462 5e-4 30
 755 694 0 1 754 18 757 +-.00386797694587277 .06488 -.003514079445060505 8146929
29386892e-28 1 -843789105436424e-28 133 18 695 0 415 755 6 0 +6 -.00380377710582
073 .06538 -.002844559338433885 -.00380377710582073 .06488 -.002844559338433885
 0 5e-4 141 757 754 757 757 755 16 415 234 0 ?39 412 411 18 0 0 1 17 39 0 758 41
0 759 25 35 415 0 27 +15 758 229 0 410 760 0 17 410 0 758 544 39 10 27 408 0 0 +
17 759 0 758 39 544 83 557 517 0 707 -17 35 0 34 45 32 83 39 415 0 759 -17 27 0
 26 37 24 25 410 408 0 0 -17 37 0 26 395 27 49 32 38 0 36 +15 34 267 0 45 618 0
 17 544 0 758 759 410 80 31 411 0 531 +17 557 0 761 515 707 80 759 517 0 0 +17 7
07 0 761 557 183 83 603 363 0 0 +15 761 170 0 707 762 0 17 183 0 761 707 589 181
 198 367 0 603 +17 603 0 602 682 22 181 707 363 0 711 -17 711 0 763 198 189 181
 697 272 0 684 +15 763 226 0 189 764 0 17 198 0 763 679 711 196 183 367 0 589 -1
7 189 0 763 711 679 187 204 406 0 697 +17 679 0 763 189 198 202 432 262 0 765 +1
7 432 0 650 430 765 196 679 262 0 0 -17 765 0 650 432 766 202 261 259 0 0 -15 65
0 45 0 765 639 0 17 766 0 650 765 430 199 669 267 0 261 -17 261 0 26 351 204 199
 765 259 0 0 +17 351 0 26 87 261 94 201 349 0 0 +17 87 0 26 359 351 85 96 412 0
 767 +17 201 0 768 669 355 199 351 349 0 766 -15 768 155 0 201 769 0 17 669 0 76
8 102 201 193 766 267 0 430 +17 355 0 768 201 770 94 150 353 0 351 +17 770 0 768
 355 147 148 290 288 0 287 -17 150 0 771 772 96 148 355 353 0 770 -15 771 255 0
 767 773 0 17 772 0 771 767 150 154 287 285 0 774 -17 96 0 771 150 767 94 87 412
 0 355 -17 767 0 771 96 772 85 156 360 0 592 -17 156 0 591 284 592 154 767 360 0
 772 +17 592 0 591 156 590 85 359 357 0 0 -17 359 0 26 177 87 88 592 357 0 590 +
17 177 0 26 775 359 175 90 414 0 468 +17 775 0 26 73 177 178 270 268 0 0 -17 468
 0 467 90 174 175 776 271 0 270 -17 776 0 777 584 270 172 468 271 0 0 +16 271 69
 0 ?776 522 268 470 0 0 1 17 270 0 777 776 521 175 775 268 0 0 +15 777 65 0 270
 778 0 17 521 0 777 270 584 178 583 276 0 775 +17 584 0 777 521 776 169 526 522
 0 0 -17 526 0 761 589 515 172 584 522 0 776 +17 589 0 761 183 526 196 429 516 0
 426 +17 515 0 761 526 557 169 531 513 0 583 +17 531 0 530 64 171 80 515 513 0 5
57 -14 778 64 779 ?649 780 777 4 655 +0 0 649 780 21 81 1 779 516 629 778 781 0
 782 783 784 14 649 54 782 ?639 778 696 4 653 -0 0 639 778 21 14 780 74 783 ?778
 785 786 4 787 -0 0 778 785 21 51 655 450 0 778 653 787 0 +0 .06488 0 0 1 0 .004
74976189936268 0 0 1 51 787 451 0 780 655 788 0 +0 .06388 0 0 -1 0 .0055 0 0 1 5
1 788 452 0 785 787 789 0 +0 .06488 0 0 -1 0 .007325 0 0 1 14 785 81 790 ?780 79
1 792 4 788 -0 0 780 791 21 51 789 453 0 791 788 793 0 +0 .065 0 0 -1 0 .009 0 0
 -1 14 791 88 794 ?785 795 796 4 789 +0 0 785 795 21 51 793 454 0 795 789 797 0
 +0 .06538 0 0 1 0 .00474976189936268 0 0 -1 14 795 91 798 ?791 799 800 4 793 -0
 0 791 799 21 51 797 455 0 799 793 801 0 +0 .06538 0 0 1 0 .00474976189936268 0
 0 -1 14 799 101 802 ?795 740 803 4 797 -0 0 795 740 21 51 801 456 0 740 797 804
 0 +0 .06538 0 0 1 0 .00474976189936268 0 0 -1 14 740 111 805 ?799 745 739 4 801
 -0 0 799 745 21 50 804 457 0 745 801 806 0 +0 .06388 0 0 1 0 0 0 1 14 745 121 8
07 ?740 808 743 4 804 +0 0 740 808 21 50 806 458 0 808 804 809 0 +0 .065 0 0 1 0
 0 0 1 14 808 141 810 ?745 811 812 4 806 +0 0 745 811 21 50 809 459 0 811 806 81
3 0 +0 .06488 0 0 1 0 0 0 1 14 811 144 814 ?808 815 816 4 809 +0 0 808 815 21 51
 813 460 0 815 809 817 0 +0 .06538 0 0 -1 0 .00524976189936268 0 0 -1 14 815 147
 818 ?811 769 819 4 813 +0 0 811 769 21 50 817 461 0 769 813 820 0 +.005 .06538
 -.0016 -.304775727103781 0 -.952424147199325 .952424147199325 0 -.3047757271037
81 14 769 154 821 ?815 594 768 4 817 +0 0 815 594 21 50 820 462 0 594 817 822 0
 +.005 .06538 .0016 -.304775727103783 0 .952424147199324 -.952424147199324 0 -.3
04775727103783 14 594 160 823 ?769 762 591 4 820 +0 0 769 762 21 50 822 463 0 76
2 820 824 0 +0 .06538 0 0 1 0 0 0 -1 14 762 169 825 ?594 574 761 4 822 +0 0 594
 574 21 51 824 464 0 574 822 826 0 +0 .06538 0 0 -1 0 .00524976189936268 0 0 -1
 14 574 178 827 ?762 579 573 4 824 +0 0 762 579 21 50 826 465 0 579 824 828 0 +-
.00111435935394492 .06538 .00513012701892219 .977211370204235 0 .212268551470919
 -.212268551470919 0 .977211370204235 14 579 185 829 ?574 568 577 4 826 +0 0 574
 568 21 50 828 466 0 568 826 830 0 +-.00388564064605512 .06538 .0035301270189221
75 -.67243564310045 0 -.740155595728415 .740155595728415 0 -.67243564310045 14 5
68 194 831 ?579 749 566 4 828 +0 0 579 749 21 51 830 467 0 749 828 832 0 +0 .065
38 0 0 -1 0 .00524976189936268 0 0 -1 14 749 203 833 ?568 753 747 4 830 +0 0 568
 753 21 50 832 468 0 753 830 834 0 +-.00388564064605507 .06538 -.003530127018922
23 -.672435643100462 0 .740155595728404 -.740155595728404 0 -.672435643100462 14
 753 210 835 ?749 730 752 4 832 +0 0 749 730 21 50 834 469 0 730 832 836 0 +-.00
1114359353944848 .06538 -.00513012701892221 .977211370204238 0 -.212268551470903
5 .2122685514709035 0 .977211370204238 14 730 219 837 ?753 764 727 4 834 +0 0 75
3 764 21 51 836 470 0 764 834 838 0 +0 .06488 0 0 1 0 .00474976189936268 0 0 1 1
4 764 225 839 ?730 760 763 4 836 +0 0 730 760 21 51 838 471 0 760 836 450 0 +0 .
06488 0 0 1 0 .00474976189936268 0 0 1 14 760 228 840 ?764 732 758 4 838 +0 0 76
4 732 21 50 450 472 0 732 838 439 0 +0 .06488 0 0 -1 0 0 0 1 14 732 235 841 ?760
 448 26 4 450 +0 0 760 448 21 81 1 841 582 629 732 842 0 840 843 844 14 448 244
 843 ?732 438 530 4 439 +0 0 732 438 21 81 1 843 585 629 448 845 0 841 447 846 8
0 1 629 847 848 8015 0 0 0 0 3 5 0 0 0 FFFFTFFFFFFFFF2 81 2 845 584 847 448 849
 843 842 850 851 852 81 1 447 588 629 438 850 0 843 853 854 83 1 846 0 81 2 850
 587 847 438 855 447 845 856 857 858 81 1 853 591 629 449 856 0 447 859 860 83 1
 854 0 14 449 251 853 ?438 773 602 4 440 +0 0 438 773 21 81 2 856 590 847 449 86
1 853 850 862 863 864 81 1 859 594 629 773 862 0 853 865 866 83 1 860 0 14 773 2
54 859 ?449 867 771 4 452 -0 0 449 867 21 81 2 862 593 847 773 868 859 856 869 8
70 871 81 1 865 597 629 867 869 0 859 872 873 83 1 866 0 14 867 256 865 ?773 485
 874 4 487 -0 0 773 485 21 81 2 869 596 847 867 875 865 862 876 877 878 81 1 872
 600 629 485 876 0 865 484 879 83 1 873 0 14 485 258 872 ?867 475 735 4 476 -0 0
 867 475 21 81 2 876 599 847 485 880 872 869 881 882 883 81 1 484 603 629 475 88
1 0 872 490 884 83 1 879 0 81 2 881 602 847 475 885 484 876 886 887 888 81 1 490
 606 629 486 886 0 484 889 890 83 1 884 0 81 2 886 605 847 486 891 490 881 892 8
93 894 81 1 889 609 629 491 892 0 490 625 895 83 1 890 0 14 491 264 889 ?486 618
 543 4 488 -0 0 486 618 21 81 2 892 608 847 491 896 889 886 897 898 899 81 1 625
 612 629 618 897 0 889 627 900 83 1 895 0 81 2 897 611 847 618 901 625 892 630 9
02 903 83 1 900 0 80 2 847 904 905 8014 0 0 0 0 3 5 0 0 0 FFFFTFFFFFFFFF2 1 81 1
 901 610 906 618 0 897 896 907 908 81 2 630 614 847 626 907 627 897 909 910 911
 83 4 902 0 0 .749019607843137 .749019607843137 82 1 903 0 81 1 907 613 906 626
 0 630 901 912 913 81 2 909 617 847 15 912 631 630 0 914 915 83 4 910 0 0 .74901
9607843137 .749019607843137 82 1 911 0 81 1 912 616 906 15 0 909 907 0 916 81 1
 631 618 629 15 909 0 627 0 917 83 4 914 1 0 .50000765919731 .50000765919731 82
 1 915 1 83 1 917 0 80 1 906 0 918 8001 0 0 0 0 3 5 0 0 0 FFFFTFTFFFFFFF2 83 3 9
16 .501960784313726 0 .501960784313726 79 15 918 SDL/TYSA_COLOUR83 3 913 .749019
607843137 .749019607843137 .749019607843137 81 1 896 607 906 491 0 892 891 901 9
19 83 3 908 .749019607843137 .749019607843137 .749019607843137 81 1 891 604 906
 486 0 886 885 896 920 83 3 919 .749019607843137 .749019607843137 .7490196078431
37 81 1 885 601 906 475 0 881 880 891 921 83 3 920 .749019607843137 .74901960784
3137 .749019607843137 81 1 880 598 906 485 0 876 875 885 922 83 3 921 .749019607
843137 .749019607843137 .749019607843137 81 1 875 595 906 867 0 869 868 880 923
 83 3 922 .749019607843137 .749019607843137 .749019607843137 81 1 868 592 906 77
3 0 862 861 875 924 83 3 923 .749019607843137 .749019607843137 .749019607843137
 81 1 861 589 906 449 0 856 855 868 925 83 3 924 .749019607843137 .7490196078431
37 .749019607843137 81 1 855 586 906 438 0 850 849 861 926 83 3 925 .74901960784
3137 .749019607843137 .749019607843137 81 1 849 583 906 448 0 845 927 855 928 83
 3 926 .749019607843137 .749019607843137 .749019607843137 81 1 927 580 906 732 0
 842 929 849 930 83 3 928 .749019607843137 .749019607843137 .749019607843137 81
 2 842 581 847 732 927 841 931 845 932 933 81 1 929 577 906 760 0 931 934 927 93
5 83 3 930 .749019607843137 .749019607843137 .749019607843137 81 2 931 578 847 7
60 929 840 936 842 937 938 81 1 934 574 906 764 0 936 939 929 940 83 3 935 .7490
19607843137 .749019607843137 .749019607843137 81 2 936 575 847 764 934 839 941 9
31 942 943 81 1 939 571 906 730 0 941 944 934 945 83 3 940 .749019607843137 .749
019607843137 .749019607843137 81 2 941 572 847 730 939 837 946 936 947 948 81 1
 944 568 906 753 0 946 949 939 950 83 3 945 .749019607843137 .749019607843137 .7
49019607843137 81 2 946 569 847 753 944 835 951 941 952 953 81 1 949 565 906 749
 0 951 954 944 955 83 3 950 .749019607843137 .749019607843137 .749019607843137 8
1 2 951 566 847 749 949 833 956 946 957 958 81 1 954 562 906 568 0 956 959 949 9
60 83 3 955 .749019607843137 .749019607843137 .749019607843137 81 2 956 563 847
 568 954 831 961 951 962 963 81 1 959 559 906 579 0 961 964 954 965 83 3 960 .74
9019607843137 .749019607843137 .749019607843137 81 2 961 560 847 579 959 829 966
 956 967 968 81 1 964 556 906 574 0 966 969 959 970 83 3 965 .749019607843137 .7
49019607843137 .749019607843137 81 2 966 557 847 574 964 827 971 961 972 973 81
 1 969 553 906 762 0 971 974 964 975 83 3 970 .749019607843137 .749019607843137
 .749019607843137 81 2 971 554 847 762 969 825 976 966 977 978 81 1 974 550 906
 594 0 976 979 969 980 83 3 975 .749019607843137 .749019607843137 .7490196078431
37 81 2 976 551 847 594 974 823 981 971 982 983 81 1 979 547 906 769 0 981 984 9
74 985 83 3 980 .749019607843137 .749019607843137 .749019607843137 81 2 981 548
 847 769 979 821 986 976 987 988 81 1 984 544 906 815 0 986 989 979 990 83 3 985
 .749019607843137 .749019607843137 .749019607843137 81 2 986 545 847 815 984 818
 991 981 992 993 81 1 989 541 906 811 0 991 994 984 995 83 3 990 .74901960784313
7 .749019607843137 .749019607843137 81 2 991 542 847 811 989 814 996 986 997 998
 81 1 994 538 906 808 0 996 999 989 1000 83 3 995 .3137254901960785 .31372549019
60785 .3137254901960785 81 2 996 539 847 808 994 810 1001 991 1002 1003 81 1 999
 535 906 745 0 1001 1004 994 1005 83 3 1000 .501960784313726 0 .501960784313726
 81 2 1001 536 847 745 999 807 1006 996 1007 1008 81 1 1004 532 906 740 0 1006 1
009 999 1010 83 3 1005 .749019607843137 .749019607843137 .749019607843137 81 2 1
006 533 847 740 1004 805 1011 1001 1012 1013 81 1 1009 529 906 799 0 1011 1014 1
004 1015 83 3 1010 .749019607843137 .749019607843137 .749019607843137 81 2 1011
 530 847 799 1009 802 1016 1006 1017 1018 81 1 1014 526 906 795 0 1016 1019 1009
 1020 83 3 1015 .749019607843137 .749019607843137 .749019607843137 81 2 1016 527
 847 795 1014 798 1021 1011 1022 1023 81 1 1019 523 906 791 0 1021 1024 1014 102
5 83 3 1020 .749019607843137 .749019607843137 .749019607843137 81 2 1021 524 847
 791 1019 794 1026 1016 1027 1028 81 1 1024 520 906 785 0 1026 1029 1019 1030 83
 3 1025 .501960784313726 0 .501960784313726 81 2 1026 521 847 785 1024 790 1031
 1021 1032 1033 81 1 1029 517 906 780 0 1031 1034 1024 1035 83 3 1030 .749019607
843137 .749019607843137 .749019607843137 81 2 1031 518 847 780 1029 783 781 1026
 1036 1037 81 1 1034 514 906 778 0 781 1038 1029 1039 83 3 1035 .749019607843137
 .749019607843137 .749019607843137 81 2 781 515 847 778 1034 779 1040 1031 1041
 1042 81 1 1038 511 906 649 0 1040 1043 1034 1044 83 3 1039 .749019607843137 .74
9019607843137 .749019607843137 81 2 1040 512 847 649 1038 782 1045 781 1046 1047
 81 1 1043 508 906 639 0 1045 1048 1038 1049 83 3 1044 .749019607843137 .7490196
07843137 .749019607843137 81 2 1045 509 847 639 1043 644 642 1040 1050 1051 81 1
 1048 505 906 636 0 642 1052 1043 1053 83 3 1049 .749019607843137 .7490196078431
37 .749019607843137 81 2 642 506 847 636 1048 637 1054 1045 1055 1056 81 1 1052
 502 906 638 0 1054 1057 1048 1058 83 3 1053 .749019607843137 .749019607843137 .
749019607843137 81 2 1054 503 847 638 1052 643 1059 642 1060 1061 81 1 1057 499
 906 646 0 1059 1062 1052 1063 83 3 1058 .501960784313726 0 .501960784313726 14
 646 27 1064 ?1065 638 1066 4 652 +0 0 1065 638 21 81 2 1059 500 847 646 1057 10
64 1067 1054 1068 1069 81 1 1062 496 906 1065 0 1067 1070 1057 1071 83 3 1063 .5
01960784313726 0 .501960784313726 14 1065 20 1072 ?1073 646 1074 4 1075 +0 0 107
3 646 21 81 2 1067 497 847 1065 1062 1072 1076 1059 1077 1078 81 1 1070 493 906
 1073 0 1076 1079 1062 1080 83 3 1071 .501960784313726 0 .501960784313726 14 107
3 15 1081 ?1082 1065 1083 4 1084 +0 0 1082 1065 21 81 2 1076 494 847 1073 1070 1
081 1085 1067 1086 1087 81 1 1079 490 906 1082 0 1085 1088 1070 1089 83 3 1080 .
501960784313726 0 .501960784313726 14 1082 10 1090 ?237 1073 238 4 1091 +0 0 237
 1073 21 81 2 1085 491 847 1082 1079 1090 1092 1076 1093 1094 81 1 1088 487 906
 237 0 1092 0 1079 1095 83 3 1089 .501960784313726 0 .501960784313726 14 237 3 1
096 ?0 1082 1097 4 1098 -0 0 0 1082 21 81 2 1092 488 847 237 1088 1096 0 1085 10
99 1100 83 3 1095 .501960784313726 0 .501960784313726 81 1 1096 489 629 237 1092
 0 0 1090 1101 83 4 1099 1 0 .50000765919731 .50000765919731 82 1 1100 1 81 1 10
90 492 629 1082 1085 0 1096 1081 1102 83 1 1101 0 81 1 1081 495 629 1073 1076 0
 1090 1072 1103 83 1 1102 0 81 1 1072 498 629 1065 1067 0 1081 1064 1104 83 1 11
03 0 81 1 1064 501 629 646 1059 0 1072 643 1105 83 1 1104 0 81 1 643 504 629 638
 1054 0 1064 637 1106 83 1 1105 0 83 1 1106 0 15 1097 7 0 231 237 234 54 1098 44
1 0 237 0 1091 0 +0 .0612 0 3727406335632905e-33 -1 0 .0118284271247462 .003 -1
 -3727406335632905e-33 0 54 1091 442 0 1082 1098 1084 0 +1120881645730362e-36 .0
624985728708915 0 186370316781645e-32 -1 0 .007 .002 1 186370316781645e-32 0 54
 1084 443 0 1073 1091 1075 0 +596119039197215e-35 .0599014271291086 0 1863703167
81645e-32 -1 0 .007 .002 1 186370316781645e-32 0 54 1075 444 0 1065 1084 652 0 +
0 4e-4 0 0 1 0 .0086 4e-4 0 0 1 54 652 445 0 646 1075 648 0 +0 .0646 0 0 1 0 .00
86 4e-4 0 0 1 17 231 0 1097 231 231 229 1107 239 0 1107 +17 1107 0 1108 1107 110
7 229 231 239 0 0 -15 1108 16 0 1107 1073 0 83 4 1093 1 0 .50000765919731 .50000
765919731 82 1 1094 1 15 238 14 0 235 1082 1109 15 1109 11 0 1110 1082 0 17 1110
 0 1109 1110 1110 226 228 241 0 0 -17 228 0 796 228 228 226 1110 241 0 1110 +15
 796 90 0 228 791 1111 15 1111 89 0 216 791 0 17 216 0 1111 216 216 214 1112 251
 0 1112 +17 1112 0 1113 1112 1112 214 216 251 0 0 -15 1113 28 0 1112 646 0 83 4
 1086 1 0 .50000765919731 .50000765919731 82 1 1087 1 15 1083 17 0 1114 1073 110
8 17 1114 0 1083 1114 1114 223 225 245 0 0 -17 225 0 1115 225 225 223 1114 245 0
 1114 +15 1115 35 0 225 638 0 83 4 1077 1 0 .50000765919731 .50000765919731 82 1
 1078 1 15 1074 24 0 1116 1065 1117 17 1116 0 1074 1116 1116 217 219 249 0 0 -15
 1117 21 0 1118 1065 0 17 1118 0 1117 1118 1118 220 222 247 0 0 -17 222 0 1119 2
22 222 220 1118 247 0 1118 +15 1119 271 0 222 15 0 17 219 0 647 219 219 217 1116
 249 0 1116 +15 647 36 0 219 638 1115 83 4 1068 1 0 .50000765919731 .50000765919
731 82 1 1069 1 15 1066 31 0 1120 646 1113 17 1120 0 1066 1120 1120 211 213 253
 0 0 -17 213 0 1121 213 213 211 1120 253 0 1120 +15 1121 142 0 213 808 0 83 4 10
60 1 0 .50000765919731 .50000765919731 82 1 1061 1 83 4 1055 0 0 .74901960784313
7 .749019607843137 82 1 1056 0 81 1 644 510 629 639 1045 0 637 782 1122 83 4 105
0 0 0 .749019607843137 .749019607843137 82 1 1051 0 81 1 782 513 629 649 1040 0
 644 779 1123 83 1 1122 0 83 1 1123 0 83 4 1046 0 0 .749019607843137 .7490196078
43137 82 1 1047 0 83 4 1041 0 0 .749019607843137 .749019607843137 82 1 1042 0 81
 1 783 519 629 780 1031 0 779 790 1124 83 4 1036 0 0 .749019607843137 .749019607
843137 82 1 1037 0 81 1 790 522 629 785 1026 0 783 794 1125 83 1 1124 0 81 1 794
 525 629 791 1021 0 790 798 1126 83 1 1125 0 81 1 798 528 629 795 1016 0 794 802
 1127 83 1 1126 0 81 1 802 531 629 799 1011 0 798 805 1128 83 1 1127 0 81 1 805
 534 629 740 1006 0 802 807 1129 83 1 1128 0 81 1 807 537 629 745 1001 0 805 810
 1130 83 1 1129 0 81 1 810 540 629 808 996 0 807 814 1131 83 1 1130 0 81 1 814 5
43 629 811 991 0 810 818 1132 83 1 1131 0 81 1 818 546 629 815 986 0 814 821 113
3 83 1 1132 0 81 1 821 549 629 769 981 0 818 823 1134 83 1 1133 0 81 1 823 552 6
29 594 976 0 821 825 1135 83 1 1134 0 81 1 825 555 629 762 971 0 823 827 1136 83
 1 1135 0 81 1 827 558 629 574 966 0 825 829 1137 83 1 1136 0 81 1 829 561 629 5
79 961 0 827 831 1138 83 1 1137 0 81 1 831 564 629 568 956 0 829 833 1139 83 1 1
138 0 81 1 833 567 629 749 951 0 831 835 1140 83 1 1139 0 81 1 835 570 629 753 9
46 0 833 837 1141 83 1 1140 0 81 1 837 573 629 730 941 0 835 839 1142 83 1 1141
 0 81 1 839 576 629 764 936 0 837 840 1143 83 1 1142 0 81 1 840 579 629 760 931
 0 839 841 1144 83 1 1143 0 83 1 1144 0 83 4 1032 0 0 .749019607843137 .74901960
7843137 82 1 1033 0 83 4 1027 1 0 .50000765919731 .50000765919731 82 1 1028 1 83
 4 1022 0 0 .749019607843137 .749019607843137 82 1 1023 0 83 4 1017 0 0 .7490196
07843137 .749019607843137 82 1 1018 0 83 4 1012 0 0 .749019607843137 .7490196078
43137 82 1 1013 0 83 4 1007 0 0 .749019607843137 .749019607843137 82 1 1008 0 83
 4 1002 1 0 .50000765919731 .50000765919731 82 1 1003 1 83 4 997 0 0 .3137254901
960785 .3137254901960785 82 1 998 0 83 4 992 0 0 .749019607843137 .7490196078431
37 82 1 993 0 83 4 987 0 0 .749019607843137 .749019607843137 82 1 988 0 83 4 982
 0 0 .749019607843137 .749019607843137 82 1 983 0 83 4 977 0 0 .749019607843137
 .749019607843137 82 1 978 0 83 4 972 0 0 .749019607843137 .749019607843137 82 1
 973 0 83 4 967 0 0 .749019607843137 .749019607843137 82 1 968 0 83 4 962 0 0 .7
49019607843137 .749019607843137 82 1 963 0 83 4 957 0 0 .749019607843137 .749019
607843137 82 1 958 0 83 4 952 0 0 .749019607843137 .749019607843137 82 1 953 0 8
3 4 947 0 0 .749019607843137 .749019607843137 82 1 948 0 83 4 942 0 0 .749019607
843137 .749019607843137 82 1 943 0 83 4 937 0 0 .749019607843137 .74901960784313
7 82 1 938 0 83 4 932 0 0 .749019607843137 .749019607843137 82 1 933 0 79 21 905
 SDL/TYSA_REFLECTIVITY83 4 898 0 0 .749019607843137 .749019607843137 82 1 899 0
 15 543 265 0 82 491 0 83 4 893 0 0 .749019607843137 .749019607843137 82 1 894 0
 83 4 887 0 0 .749019607843137 .749019607843137 82 1 888 0 83 4 882 0 0 .7490196
07843137 .749019607843137 82 1 883 0 83 4 877 0 0 .749019607843137 .749019607843
137 82 1 878 0 15 874 257 0 1145 867 0 54 487 477 0 867 452 476 0 +0 .06438 0 0
 -1 0 .004249761899362675 5e-4 0 0 1 54 452 476 0 773 440 487 0 +0 .06438 0 0 -1
 0 .004249761899362675 5e-4 0 0 1 17 1145 0 874 70 1146 57 144 383 0 569 -17 70
 0 874 138 1145 68 59 419 0 378 -17 1146 0 874 1145 138 142 299 297 0 1147 -17 1
44 0 566 296 569 142 1145 383 0 1146 +17 569 0 566 144 561 57 28 381 0 0 -17 28
 0 26 24 59 60 569 381 0 561 +17 59 0 26 28 374 57 70 419 0 1145 +17 374 0 26 59
 73 68 578 372 0 0 +17 73 0 26 374 775 71 180 417 0 582 +17 296 0 566 333 144 13
9 1147 294 0 0 +17 333 0 566 567 296 109 141 331 0 575 +17 1147 0 803 299 305 14
2 296 294 0 0 -15 803 102 0 1147 799 0 17 299 0 803 302 1147 136 1146 297 0 0 +1
7 305 0 803 1147 302 139 581 303 0 296 +17 302 0 803 305 299 133 580 300 0 0 +17
 581 0 746 576 141 133 305 303 0 302 -15 746 129 0 576 745 1148 17 576 0 746 575
 581 112 135 326 0 0 -17 141 0 746 581 575 139 333 331 0 305 -17 575 0 746 141 5
76 109 330 328 0 0 -15 1148 123 0 1149 745 1150 17 1149 0 1148 1151 1152 118 147
 318 0 0 -15 1150 122 0 168 745 0 17 168 0 1150 168 168 166 1153 273 0 1153 +17
 1153 0 1154 1153 1153 166 168 273 0 0 -15 1154 75 0 1153 780 0 17 1151 0 1148 1
53 1149 115 322 320 0 0 -17 1152 0 1148 1149 153 145 293 291 0 290 -17 147 0 768
 770 120 145 1149 318 0 1152 +17 120 0 768 147 102 118 1155 342 0 322 +17 102 0
 768 120 669 100 195 352 0 586 +17 1155 0 819 346 322 100 120 342 0 0 -17 322 0
 819 1155 117 118 1151 320 0 1149 +15 819 148 0 1155 815 0 17 117 0 819 322 346
 115 588 347 0 325 +17 346 0 819 117 1155 97 586 344 0 0 +17 325 0 591 588 284 1
15 153 323 0 1151 +17 284 0 591 325 156 151 774 282 0 0 +17 153 0 1148 1152 1151
 151 325 323 0 293 -17 293 0 800 774 290 151 1152 291 0 284 +15 800 92 0 774 795
 0 17 774 0 800 287 293 154 284 282 0 0 -17 290 0 800 293 287 145 770 288 0 0 +1
7 287 0 800 290 774 148 772 285 0 0 +17 586 0 428 195 99 100 346 344 0 1155 -17
 195 0 428 426 586 193 102 352 0 669 -17 580 0 577 378 135 136 302 300 0 299 -17
 378 0 577 578 580 68 138 376 0 374 +17 138 0 874 1146 70 136 378 376 0 580 -83
 4 870 0 0 .749019607843137 .749019607843137 82 1 871 0 83 4 863 0 0 .7490196078
43137 .749019607843137 82 1 864 0 83 4 857 0 0 .749019607843137 .749019607843137
 82 1 858 0 83 4 851 0 0 .749019607843137 .749019607843137 82 1 852 0 79 21 848
 SDL/TYSA_TRANSLUCENCY83 1 844 0 15 816 146 0 1156 811 1157 17 1156 0 816 1156 1
156 163 165 275 0 0 -15 1157 145 0 162 811 0 17 162 0 1157 162 162 160 1158 278
 0 1158 +17 1158 0 1159 1158 1158 160 162 278 0 0 -15 1159 82 0 1158 785 0 17 16
5 0 786 165 165 163 1156 275 0 1156 +15 786 78 0 165 780 1154 15 812 143 0 1160
 808 1121 17 1160 0 812 1160 1160 157 159 280 0 0 -17 159 0 792 159 159 157 1160
 280 0 1160 +15 792 85 0 159 785 1159 83 1 784 0 17 430 0 650 766 432 193 426 43
1 433 0 -16 431 51 0 5e-7 426 267 262 0 0 0 1 17 31 0 543 29 82 10 544 411 0 410
 -17 29 0 543 533 31 60 24 30 0 28 -17 533 0 543 82 29 62 561 384 0 564 -141 756
 614 756 756 617 17 399 0 752 734 742 46 126 397 0 395 +17 742 0 752 399 123 124
 314 312 0 311 -17 126 0 735 736 48 124 399 397 0 742 -17 123 0 752 742 108 121
 744 334 0 741 +17 108 0 752 123 56 106 748 386 0 338 +141 656 690 656 656 653 1
7 207 0 640 207 207 205 1161 257 0 1161 +17 1161 0 633 1161 1161 205 207 257 0 0
 -15 633 272 0 1161 15 1119 83 1 645 0 83 1 632 0 133 593 682 0 361 474 596 0 +5
96 .00497727054327549 .0650326280323209 .001592726573848155 .00497727054327549 .
06488 .00159272657384816 0 .0001526280323208425 141 598 593 598 598 596 30 474 6
81 0 1 470 593 1162 +.004365349202566345 .06488 .0018718879347575 17763568394002
5e-29 1 888178419700125e-30 141 1162 470 1162 1162 474 17 111 0 573 330 369 109
 567 370 0 333 +141 494 537 494 494 488 141 453 683 1163 1163 440 141 1163 601 4
53 453 440 141 451 500 1164 1164 439 141 1164 529 451 451 439 19 16 273 0 1 0 8
 4 S0 141 19 18 19 19 6 74 20 14 6 0 0 1165 12 912 909 631 2 0 0 0 0 0 0 0 0 0 0
 0 0 0 0 81 1 1165 485 1166 1 0 12 0 0 1167 81 1 12 486 1168 1 1165 2 0 0 1169 8
0 1 1168 629 1170 8041 0 0 0 0 3 5 0 0 0 TTTFFFFFFFFFFF2 83 1 1169 0 79 23 1170
 SDL/TYSA_TRANSLUCENCY_280 1 1166 906 1171 8040 0 0 0 0 3 5 0 0 0 TTTFFFFFFFFFFF
2 83 3 1167 .749019607843137 .749019607843137 .749019607843137 79 17 1171 SDL/TY
SA_COLOUR_280 1 11 1172 1173 8017 0 0 0 0 0 0 0 0 0 TTTTTTTTTTTTTF3 84 14 13 Vol
umenkrper179 13 1173 SDL/TYSA_NAME1 0 
